<svg xmlns="http://www.w3.org/2000/svg" width="1160" height="500" viewBox="0 0 1160 500">
<rect width="100%" height="100%" fill="#101316"/>
<style>
text { font-family: Consolas, "Courier New", monospace; fill: #e9edf2; }
.panel { fill: #171c22; stroke: #314050; stroke-width: 1; }
.axis { stroke: #3d4f63; stroke-width: 1; stroke-dasharray: 4 4; }
.path { fill: none; stroke: #6cb6ff; stroke-width: 2; }
.point { fill: #b0beca; opacity: 0.7; }
.secondary-point { fill: #7dd3a7; opacity: 0.55; }
.camera { fill: #ffd166; stroke: #141414; stroke-width: 1; }
.label { font-size: 14px; }
.small { font-size: 12px; fill: #9fb0c0; }
</style>
<text x="40" y="32" font-size="20">Calibration Reconstruction Preview</text>
<text x="40" y="58" class="small">cameras=['2', '3', '1', '0', '4'] | strict_points=32 | secondary_points=1 | total_points=33 | error=0.4392px</text>
<text x="40" y="82" class="small">orbit_span=2.011 | height_range=0.012 | planar_ratio=0.006</text>
<rect x="40" y="110" width="520" height="360" rx="12" class="panel"/>
<text x="60" y="138" font-size="16">Top View (orbit plane)</text>
<line x1="52" y1="198.25" x2="548" y2="198.25" class="axis"/>
<line x1="258.88" y1="122" x2="258.88" y2="458" class="axis"/>
<circle cx="312.82" cy="189.42" r="2.6" class="point"/>
<circle cx="308.64" cy="201.36" r="2.6" class="point"/>
<circle cx="307.47" cy="202.82" r="2.6" class="point"/>
<circle cx="309.30" cy="177.05" r="2.6" class="point"/>
<circle cx="308.54" cy="175.52" r="2.6" class="point"/>
<circle cx="301.29" cy="170.48" r="2.6" class="point"/>
<circle cx="299.95" cy="207.09" r="2.6" class="point"/>
<circle cx="303.21" cy="209.21" r="2.6" class="point"/>
<circle cx="297.96" cy="212.39" r="2.6" class="point"/>
<circle cx="296.83" cy="212.33" r="2.6" class="point"/>
<circle cx="275.04" cy="204.95" r="2.6" class="point"/>
<circle cx="258.58" cy="200.32" r="2.6" class="point"/>
<circle cx="259.47" cy="172.96" r="2.6" class="point"/>
<circle cx="270.08" cy="206.02" r="2.6" class="point"/>
<circle cx="272.22" cy="207.30" r="2.6" class="point"/>
<circle cx="272.73" cy="209.45" r="2.6" class="point"/>
<circle cx="281.62" cy="211.41" r="2.6" class="point"/>
<circle cx="245.11" cy="207.87" r="2.6" class="point"/>
<circle cx="242.95" cy="203.96" r="2.6" class="point"/>
<circle cx="228.63" cy="201.65" r="2.6" class="point"/>
<circle cx="238.41" cy="209.18" r="2.6" class="point"/>
<circle cx="239.19" cy="209.29" r="2.6" class="point"/>
<circle cx="221.70" cy="208.27" r="2.6" class="point"/>
<circle cx="220.70" cy="208.21" r="2.6" class="point"/>
<circle cx="241.65" cy="173.23" r="2.6" class="point"/>
<circle cx="213.29" cy="202.78" r="2.6" class="point"/>
<circle cx="208.79" cy="197.91" r="2.6" class="point"/>
<circle cx="211.17" cy="200.27" r="2.6" class="point"/>
<circle cx="213.79" cy="200.77" r="2.6" class="point"/>
<circle cx="208.60" cy="183.63" r="2.6" class="point"/>
<circle cx="210.92" cy="169.34" r="2.6" class="point"/>
<circle cx="222.65" cy="198.19" r="2.6" class="point"/>
<circle cx="239.80" cy="197.70" r="2.2" class="secondary-point"/>
<polyline points="416.77,192.19 411.36,293.69 251.74,410.66 104.95,281.18 109.60,178.08" class="path"/>
<circle cx="416.77" cy="192.19" r="5.5" class="camera"/>
<text x="424.77" y="184.19" class="label">0</text>
<circle cx="411.36" cy="293.69" r="5.5" class="camera"/>
<text x="419.36" y="285.69" class="label">1</text>
<circle cx="251.74" cy="410.66" r="5.5" class="camera"/>
<text x="259.74" y="402.66" class="label">2</text>
<circle cx="104.95" cy="281.18" r="5.5" class="camera"/>
<text x="112.95" y="273.18" class="label">3</text>
<circle cx="109.60" cy="178.08" r="5.5" class="camera"/>
<text x="117.60" y="170.08" class="label">4</text>
<rect x="600" y="110" width="520" height="360" rx="12" class="panel"/>
<text x="620" y="138" font-size="16">Side View (height)</text>
<line x1="612" y1="394.86" x2="1108" y2="394.86" class="axis"/>
<line x1="857.60" y1="122" x2="857.60" y2="458" class="axis"/>
<circle cx="923.21" cy="399.66" r="2.6" class="point"/>
<circle cx="918.13" cy="398.29" r="2.6" class="point"/>
<circle cx="916.70" cy="398.25" r="2.6" class="point"/>
<circle cx="918.93" cy="399.26" r="2.6" class="point"/>
<circle cx="918.01" cy="399.27" r="2.6" class="point"/>
<circle cx="909.18" cy="395.91" r="2.6" class="point"/>
<circle cx="907.56" cy="394.57" r="2.6" class="point"/>
<circle cx="911.52" cy="399.22" r="2.6" class="point"/>
<circle cx="905.14" cy="399.16" r="2.6" class="point"/>
<circle cx="903.76" cy="399.09" r="2.6" class="point"/>
<circle cx="877.25" cy="390.15" r="2.6" class="point"/>
<circle cx="857.23" cy="381.17" r="2.6" class="point"/>
<circle cx="858.32" cy="382.05" r="2.6" class="point"/>
<circle cx="871.22" cy="390.07" r="2.6" class="point"/>
<circle cx="873.82" cy="392.98" r="2.6" class="point"/>
<circle cx="874.45" cy="406.17" r="2.6" class="point"/>
<circle cx="885.25" cy="406.47" r="2.6" class="point"/>
<circle cx="840.85" cy="405.22" r="2.6" class="point"/>
<circle cx="838.22" cy="389.63" r="2.6" class="point"/>
<circle cx="820.80" cy="388.51" r="2.6" class="point"/>
<circle cx="832.70" cy="405.01" r="2.6" class="point"/>
<circle cx="833.65" cy="405.01" r="2.6" class="point"/>
<circle cx="812.37" cy="398.82" r="2.6" class="point"/>
<circle cx="811.15" cy="398.77" r="2.6" class="point"/>
<circle cx="836.64" cy="381.60" r="2.6" class="point"/>
<circle cx="802.13" cy="397.43" r="2.6" class="point"/>
<circle cx="796.66" cy="392.75" r="2.6" class="point"/>
<circle cx="799.56" cy="390.93" r="2.6" class="point"/>
<circle cx="802.75" cy="390.12" r="2.6" class="point"/>
<circle cx="796.43" cy="391.85" r="2.6" class="point"/>
<circle cx="799.26" cy="394.06" r="2.6" class="point"/>
<circle cx="813.53" cy="388.18" r="2.6" class="point"/>
<circle cx="834.38" cy="380.86" r="2.2" class="secondary-point"/>
<polyline points="1049.66,362.30 1043.08,362.84 848.91,363.42 670.34,361.15 676.01,363.98" class="path"/>
<circle cx="1049.66" cy="362.30" r="5.5" class="camera"/>
<text x="1057.66" y="354.30" class="label">0</text>
<circle cx="1043.08" cy="362.84" r="5.5" class="camera"/>
<text x="1051.08" y="354.84" class="label">1</text>
<circle cx="848.91" cy="363.42" r="5.5" class="camera"/>
<text x="856.91" y="355.42" class="label">2</text>
<circle cx="670.34" cy="361.15" r="5.5" class="camera"/>
<text x="678.34" y="353.15" class="label">3</text>
<circle cx="676.01" cy="363.98" r="5.5" class="camera"/>
<text x="684.01" y="355.98" class="label">4</text>
</svg>